<mxfile host="Electron" agent="Mozilla/5.0 (Windows NT 10.0; Win64; x64) AppleWebKit/537.36 (KHTML, like Gecko) draw.io/27.0.9 Chrome/134.0.6998.205 Electron/35.4.0 Safari/537.36" version="27.0.9">
  <diagram name="Level 0 DFD" id="StockMarketDFD">
    <mxGraphModel dx="1426" dy="1062" grid="1" gridSize="10" guides="1" tooltips="1" connect="1" arrows="1" fold="1" page="0" pageScale="1" pageWidth="1200" pageHeight="1100" math="0" shadow="0">
      <root>
        <mxCell id="0" />
        <mxCell id="1" parent="0" />
        <mxCell id="Ik0GXzzRlACz-HJtQ1tE-24" style="edgeStyle=orthogonalEdgeStyle;rounded=0;orthogonalLoop=1;jettySize=auto;html=1;exitX=0;exitY=0.5;exitDx=0;exitDy=0;entryX=0;entryY=0.5;entryDx=0;entryDy=0;" edge="1" parent="1" source="user" target="users_store">
          <mxGeometry relative="1" as="geometry" />
        </mxCell>
        <mxCell id="Ik0GXzzRlACz-HJtQ1tE-25" value="&lt;b&gt;&lt;font style=&quot;font-size: 16px;&quot;&gt;User Data&lt;/font&gt;&lt;/b&gt;" style="edgeLabel;html=1;align=center;verticalAlign=middle;resizable=0;points=[];" vertex="1" connectable="0" parent="Ik0GXzzRlACz-HJtQ1tE-24">
          <mxGeometry x="-0.0174" y="-1" relative="1" as="geometry">
            <mxPoint as="offset" />
          </mxGeometry>
        </mxCell>
        <mxCell id="user" value="&lt;font style=&quot;font-size: 20px;&quot;&gt;&lt;b&gt;User&lt;/b&gt;&lt;/font&gt;" style="rounded=0;whiteSpace=wrap;html=1;" parent="1" vertex="1">
          <mxGeometry x="60" y="80" width="160" height="80" as="geometry" />
        </mxCell>
        <mxCell id="Ik0GXzzRlACz-HJtQ1tE-14" style="edgeStyle=orthogonalEdgeStyle;rounded=1;orthogonalLoop=1;jettySize=auto;html=1;exitX=0.5;exitY=0;exitDx=0;exitDy=0;entryX=1;entryY=0.5;entryDx=0;entryDy=0;curved=0;" edge="1" parent="1" source="admin" target="system_process">
          <mxGeometry relative="1" as="geometry" />
        </mxCell>
        <mxCell id="Ik0GXzzRlACz-HJtQ1tE-15" value="&lt;b&gt;&lt;font style=&quot;font-size: 16px;&quot;&gt;Manage Companies / FAQs&lt;/font&gt;&lt;/b&gt;" style="edgeLabel;html=1;align=center;verticalAlign=middle;resizable=0;points=[];" vertex="1" connectable="0" parent="Ik0GXzzRlACz-HJtQ1tE-14">
          <mxGeometry x="0.3125" y="1" relative="1" as="geometry">
            <mxPoint x="23" y="-1" as="offset" />
          </mxGeometry>
        </mxCell>
        <mxCell id="Ik0GXzzRlACz-HJtQ1tE-41" style="edgeStyle=orthogonalEdgeStyle;rounded=0;orthogonalLoop=1;jettySize=auto;html=1;exitX=1;exitY=0.5;exitDx=0;exitDy=0;entryX=0.5;entryY=0;entryDx=0;entryDy=0;" edge="1" parent="1" source="admin" target="faq_store">
          <mxGeometry relative="1" as="geometry" />
        </mxCell>
        <mxCell id="Ik0GXzzRlACz-HJtQ1tE-42" value="&lt;b&gt;&lt;font style=&quot;font-size: 16px;&quot;&gt;Company /&amp;nbsp; FAQ Data&lt;/font&gt;&lt;/b&gt;" style="edgeLabel;html=1;align=center;verticalAlign=middle;resizable=0;points=[];" vertex="1" connectable="0" parent="Ik0GXzzRlACz-HJtQ1tE-41">
          <mxGeometry x="-0.0409" relative="1" as="geometry">
            <mxPoint as="offset" />
          </mxGeometry>
        </mxCell>
        <mxCell id="admin" value="&lt;font style=&quot;font-size: 20px;&quot;&gt;&lt;b&gt;Admin&lt;/b&gt;&lt;/font&gt;" style="rounded=0;whiteSpace=wrap;html=1;" parent="1" vertex="1">
          <mxGeometry x="950" y="70" width="160" height="80" as="geometry" />
        </mxCell>
        <mxCell id="system_group" value="" style="group" parent="1" vertex="1" connectable="0">
          <mxGeometry x="500" y="-120" width="240" height="240" as="geometry" />
        </mxCell>
        <mxCell id="system_process" value="" style="rounded=1;whiteSpace=wrap;html=1;" parent="system_group" vertex="1">
          <mxGeometry width="240" height="240" as="geometry" />
        </mxCell>
        <mxCell id="system_label" value="&lt;font style=&quot;font-size: 20px;&quot;&gt;&lt;b&gt;Stock Vault&lt;/b&gt;&lt;/font&gt;" style="text;html=1;strokeColor=none;fillColor=none;align=center;verticalAlign=middle;whiteSpace=wrap;rounded=0;" parent="system_group" vertex="1">
          <mxGeometry x="30" y="100" width="180" height="40" as="geometry" />
        </mxCell>
        <mxCell id="users_store" value="&lt;font style=&quot;font-size: 15px;&quot;&gt;D1: Users&lt;/font&gt;" style="shape=datastore;whiteSpace=wrap;html=1;" parent="1" vertex="1">
          <mxGeometry x="50" y="500" width="120" height="60" as="geometry" />
        </mxCell>
        <mxCell id="companies_store" value="&lt;font style=&quot;font-size: 15px;&quot;&gt;D2: Listed Companies&lt;/font&gt;" style="shape=datastore;whiteSpace=wrap;html=1;" parent="1" vertex="1">
          <mxGeometry x="200" y="500" width="120" height="60" as="geometry" />
        </mxCell>
        <mxCell id="shareholdings_store" value="&lt;font style=&quot;font-size: 15px;&quot;&gt;D3: Share Holdings&lt;/font&gt;" style="shape=datastore;whiteSpace=wrap;html=1;" parent="1" vertex="1">
          <mxGeometry x="350" y="500" width="120" height="60" as="geometry" />
        </mxCell>
        <mxCell id="wishlists_store" value="&lt;font style=&quot;font-size: 15px;&quot;&gt;D4: Wish Lists&lt;/font&gt;" style="shape=datastore;whiteSpace=wrap;html=1;" parent="1" vertex="1">
          <mxGeometry x="500" y="500" width="120" height="60" as="geometry" />
        </mxCell>
        <mxCell id="historical_prices_store" value="&lt;font style=&quot;font-size: 15px;&quot;&gt;D5: Historical Prices&lt;/font&gt;" style="shape=datastore;whiteSpace=wrap;html=1;" parent="1" vertex="1">
          <mxGeometry x="650" y="500" width="120" height="60" as="geometry" />
        </mxCell>
        <mxCell id="testimonials_store" value="&lt;font style=&quot;font-size: 15px;&quot;&gt;D6: User Testimonials&lt;/font&gt;" style="shape=datastore;whiteSpace=wrap;html=1;" parent="1" vertex="1">
          <mxGeometry x="800" y="500" width="120" height="60" as="geometry" />
        </mxCell>
        <mxCell id="activities_store" value="&lt;font style=&quot;font-size: 15px;&quot;&gt;D7: Recent Activities&lt;/font&gt;" style="shape=datastore;whiteSpace=wrap;html=1;" parent="1" vertex="1">
          <mxGeometry x="950" y="500" width="120" height="60" as="geometry" />
        </mxCell>
        <mxCell id="faq_store" value="&lt;font style=&quot;font-size: 15px;&quot;&gt;D8: FAQ&lt;/font&gt;" style="shape=datastore;whiteSpace=wrap;html=1;" parent="1" vertex="1">
          <mxGeometry x="1100" y="500" width="120" height="60" as="geometry" />
        </mxCell>
        <mxCell id="Ik0GXzzRlACz-HJtQ1tE-6" style="edgeStyle=orthogonalEdgeStyle;rounded=1;orthogonalLoop=1;jettySize=auto;html=1;exitX=0;exitY=0.25;exitDx=0;exitDy=0;entryX=0.25;entryY=0;entryDx=0;entryDy=0;curved=0;" edge="1" parent="1" source="system_process" target="user">
          <mxGeometry relative="1" as="geometry" />
        </mxCell>
        <mxCell id="Ik0GXzzRlACz-HJtQ1tE-7" value="&lt;font style=&quot;font-size: 16px;&quot;&gt;&lt;b&gt;Shares / Wishlist Data&lt;/b&gt;&lt;/font&gt;" style="edgeLabel;html=1;align=center;verticalAlign=middle;resizable=0;points=[];" vertex="1" connectable="0" parent="Ik0GXzzRlACz-HJtQ1tE-6">
          <mxGeometry x="-0.0173" y="2" relative="1" as="geometry">
            <mxPoint x="35" as="offset" />
          </mxGeometry>
        </mxCell>
        <mxCell id="Ik0GXzzRlACz-HJtQ1tE-8" style="edgeStyle=orthogonalEdgeStyle;rounded=1;orthogonalLoop=1;jettySize=auto;html=1;exitX=0.5;exitY=0;exitDx=0;exitDy=0;entryX=0.013;entryY=0.456;entryDx=0;entryDy=0;entryPerimeter=0;curved=0;" edge="1" parent="1" source="user" target="system_process">
          <mxGeometry relative="1" as="geometry" />
        </mxCell>
        <mxCell id="Ik0GXzzRlACz-HJtQ1tE-9" value="&lt;b&gt;&lt;font style=&quot;font-size: 16px;&quot;&gt;Register / Login&lt;/font&gt;&lt;/b&gt;" style="edgeLabel;html=1;align=center;verticalAlign=middle;resizable=0;points=[];" vertex="1" connectable="0" parent="Ik0GXzzRlACz-HJtQ1tE-8">
          <mxGeometry x="-0.1173" relative="1" as="geometry">
            <mxPoint x="31" as="offset" />
          </mxGeometry>
        </mxCell>
        <mxCell id="Ik0GXzzRlACz-HJtQ1tE-11" style="edgeStyle=orthogonalEdgeStyle;rounded=1;orthogonalLoop=1;jettySize=auto;html=1;exitX=0.75;exitY=0;exitDx=0;exitDy=0;entryX=0.002;entryY=0.636;entryDx=0;entryDy=0;entryPerimeter=0;curved=0;" edge="1" parent="1" source="user" target="system_process">
          <mxGeometry relative="1" as="geometry" />
        </mxCell>
        <mxCell id="Ik0GXzzRlACz-HJtQ1tE-12" value="&lt;b&gt;&lt;font style=&quot;font-size: 16px;&quot;&gt;View Shares / Wishlist&lt;/font&gt;&lt;/b&gt;" style="edgeLabel;html=1;align=center;verticalAlign=middle;resizable=0;points=[];" vertex="1" connectable="0" parent="Ik0GXzzRlACz-HJtQ1tE-11">
          <mxGeometry x="0.0397" y="-1" relative="1" as="geometry">
            <mxPoint as="offset" />
          </mxGeometry>
        </mxCell>
        <mxCell id="Ik0GXzzRlACz-HJtQ1tE-32" value="" style="endArrow=classic;html=1;rounded=0;exitX=0.995;exitY=0.889;exitDx=0;exitDy=0;exitPerimeter=0;entryX=0.5;entryY=0;entryDx=0;entryDy=0;" edge="1" parent="1" source="system_process" target="activities_store">
          <mxGeometry width="50" height="50" relative="1" as="geometry">
            <mxPoint x="430" y="270" as="sourcePoint" />
            <mxPoint x="480" y="220" as="targetPoint" />
          </mxGeometry>
        </mxCell>
        <mxCell id="Ik0GXzzRlACz-HJtQ1tE-33" value="" style="endArrow=classic;html=1;rounded=0;exitX=1.001;exitY=0.677;exitDx=0;exitDy=0;exitPerimeter=0;entryX=0.5;entryY=0;entryDx=0;entryDy=0;" edge="1" parent="1" source="system_process" target="faq_store">
          <mxGeometry width="50" height="50" relative="1" as="geometry">
            <mxPoint x="790" y="260" as="sourcePoint" />
            <mxPoint x="840" y="210" as="targetPoint" />
          </mxGeometry>
        </mxCell>
        <mxCell id="Ik0GXzzRlACz-HJtQ1tE-35" value="" style="endArrow=classic;html=1;rounded=0;exitX=0.75;exitY=1;exitDx=0;exitDy=0;entryX=0.5;entryY=0;entryDx=0;entryDy=0;" edge="1" parent="1" source="system_process" target="testimonials_store">
          <mxGeometry width="50" height="50" relative="1" as="geometry">
            <mxPoint x="770" y="320" as="sourcePoint" />
            <mxPoint x="820" y="270" as="targetPoint" />
          </mxGeometry>
        </mxCell>
        <mxCell id="Ik0GXzzRlACz-HJtQ1tE-36" value="" style="endArrow=classic;html=1;rounded=0;exitX=0.5;exitY=1;exitDx=0;exitDy=0;entryX=0.5;entryY=0;entryDx=0;entryDy=0;" edge="1" parent="1" source="system_process" target="historical_prices_store">
          <mxGeometry width="50" height="50" relative="1" as="geometry">
            <mxPoint x="590" y="310" as="sourcePoint" />
            <mxPoint x="640" y="260" as="targetPoint" />
          </mxGeometry>
        </mxCell>
        <mxCell id="Ik0GXzzRlACz-HJtQ1tE-37" value="" style="endArrow=classic;html=1;rounded=0;exitX=0.157;exitY=1;exitDx=0;exitDy=0;exitPerimeter=0;entryX=0.5;entryY=0;entryDx=0;entryDy=0;" edge="1" parent="1" source="system_process" target="shareholdings_store">
          <mxGeometry width="50" height="50" relative="1" as="geometry">
            <mxPoint x="340" y="310" as="sourcePoint" />
            <mxPoint x="390" y="260" as="targetPoint" />
          </mxGeometry>
        </mxCell>
        <mxCell id="Ik0GXzzRlACz-HJtQ1tE-38" value="" style="endArrow=classic;html=1;rounded=0;entryX=0.5;entryY=0;entryDx=0;entryDy=0;" edge="1" parent="1" target="wishlists_store">
          <mxGeometry width="50" height="50" relative="1" as="geometry">
            <mxPoint x="590" y="120" as="sourcePoint" />
            <mxPoint x="390" y="130" as="targetPoint" />
          </mxGeometry>
        </mxCell>
        <mxCell id="Ik0GXzzRlACz-HJtQ1tE-39" value="" style="endArrow=classic;html=1;rounded=0;entryX=0.5;entryY=0;entryDx=0;entryDy=0;exitX=0.031;exitY=0.942;exitDx=0;exitDy=0;exitPerimeter=0;" edge="1" parent="1" source="system_process" target="companies_store">
          <mxGeometry width="50" height="50" relative="1" as="geometry">
            <mxPoint x="230" y="240" as="sourcePoint" />
            <mxPoint x="280" y="190" as="targetPoint" />
          </mxGeometry>
        </mxCell>
        <mxCell id="Ik0GXzzRlACz-HJtQ1tE-40" value="" style="endArrow=classic;html=1;rounded=0;entryX=0.5;entryY=0;entryDx=0;entryDy=0;exitX=0;exitY=0.75;exitDx=0;exitDy=0;" edge="1" parent="1" source="system_process" target="users_store">
          <mxGeometry width="50" height="50" relative="1" as="geometry">
            <mxPoint x="230" y="240" as="sourcePoint" />
            <mxPoint x="280" y="190" as="targetPoint" />
          </mxGeometry>
        </mxCell>
      </root>
    </mxGraphModel>
  </diagram>
</mxfile>
